<svg width="20" height="20" viewBox="0 0 20 20" fill="none" xmlns="http://www.w3.org/2000/svg">
<path d="M10.1913 15.2396C10.0799 14.995 9.84931 14.8164 9.57019 14.7847C9.33383 14.7577 9.10242 14.7071 8.88237 14.6341C8.78371 14.6009 8.69112 14.5646 8.60539 14.5258L8.74782 14.1376C8.84839 14.1825 8.95201 14.2235 9.05809 14.2607L9.06248 14.2622L9.06698 14.2637C9.40741 14.3762 9.74243 14.4332 10.0625 14.4332C10.3839 14.4332 10.6169 14.3902 10.7959 14.2978L10.8066 14.2923L10.817 14.2862C11.0882 14.1306 11.2437 13.8632 11.2437 13.5524C11.2437 13.2074 11.0577 12.9211 10.7331 12.7664C10.5699 12.687 10.338 12.6112 10.004 12.5282C9.66143 12.4415 9.37366 12.3496 9.15046 12.2555C8.98733 12.1817 8.84581 12.0639 8.71823 11.8955C8.60843 11.7452 8.55286 11.5192 8.55286 11.2234C8.55286 10.8665 8.65332 10.572 8.86009 10.3229C9.04414 10.1047 9.30548 9.95642 9.65626 9.87329C9.91647 9.81164 10.1194 9.6259 10.2107 9.38605C10.3138 9.62916 10.5333 9.80995 10.8065 9.85349C11.0346 9.88982 11.2441 9.94776 11.4324 10.0262L11.3013 10.4066C10.9457 10.2639 10.5957 10.1918 10.2572 10.1918C9.13302 10.1918 9.07609 10.9673 9.07609 11.1228C9.07609 11.4599 9.25812 11.7425 9.57548 11.8983L9.58437 11.9027L9.59337 11.9067C9.75368 11.9783 9.98116 12.0472 10.3094 12.1237C10.6488 12.2005 10.9319 12.2883 11.1543 12.3857L11.1589 12.3878L11.1635 12.3897C11.3287 12.4584 11.4703 12.5732 11.5965 12.7406L11.5986 12.7432L11.6006 12.7459C11.711 12.8885 11.767 13.1091 11.767 13.4016C11.767 13.7392 11.6692 14.025 11.4681 14.2753C11.2936 14.4924 11.05 14.6427 10.7232 14.7347C10.4709 14.8058 10.2751 14.9988 10.1913 15.2396Z" fill="black"/>
<path d="M10.4759 16.25H9.93416C9.813 16.25 9.71479 16.1493 9.71479 16.025V15.5733C9.71479 15.4545 9.62468 15.3569 9.50948 15.3437C9.2352 15.3125 8.96993 15.2544 8.71354 15.1693C8.46446 15.0854 8.24868 14.9859 8.06618 14.8706C7.98231 14.8176 7.9518 14.7101 7.98648 14.6156L8.35804 13.6024C8.4081 13.4661 8.56954 13.4139 8.69385 13.4844C8.8617 13.5795 9.04215 13.6608 9.23498 13.7283C9.52241 13.8233 9.79827 13.8707 10.0624 13.8707C10.2896 13.8707 10.4519 13.8457 10.5492 13.7954C10.6465 13.7395 10.6952 13.6585 10.6952 13.5524C10.6952 13.4295 10.6303 13.3374 10.5005 13.2759C10.3754 13.2145 10.1667 13.1475 9.87476 13.0749C9.49924 12.98 9.18638 12.8794 8.93607 12.7733C8.68575 12.6616 8.46784 12.4828 8.28244 12.2371C8.097 11.9858 8.0043 11.6479 8.0043 11.2234C8.0043 10.7319 8.15032 10.3102 8.4423 9.95833C8.70555 9.64625 9.06893 9.4352 9.53265 9.32529C9.63705 9.30054 9.71479 9.20761 9.71479 9.09781V8.6C9.71479 8.47569 9.813 8.375 9.93416 8.375H10.4759C10.597 8.375 10.6952 8.47569 10.6952 8.6V9.06935C10.6952 9.18432 10.7798 9.28006 10.8905 9.29773C11.2968 9.36241 11.6537 9.48493 11.9613 9.66526C12.0486 9.71645 12.0833 9.82535 12.0497 9.92255L11.702 10.9316C11.656 11.0653 11.5024 11.1219 11.3789 11.058C10.9872 10.8555 10.6133 10.7543 10.2572 10.7543C9.83528 10.7543 9.62434 10.8771 9.62434 11.1228C9.62434 11.2402 9.687 11.3295 9.8121 11.391C9.93732 11.4468 10.1435 11.5082 10.431 11.5753C10.8018 11.6591 11.1147 11.7568 11.3697 11.8685C11.6246 11.9746 11.8448 12.1505 12.0303 12.3963C12.2203 12.642 12.3153 12.9772 12.3153 13.4016C12.3153 13.8707 12.1739 14.2813 11.8911 14.6332C11.6448 14.9398 11.3039 15.1545 10.8684 15.2772C10.7682 15.3055 10.6952 15.3964 10.6952 15.5028V16.025C10.6952 16.1493 10.597 16.25 10.4759 16.25Z" fill="black"/>
<path fill-rule="evenodd" clip-rule="evenodd" d="M7.79139 1.625H12.5409C13.7573 1.625 13.0893 3.497 12.5968 4.63887L12.0363 5.94838L11.9606 6.125C12.4915 6.09857 13.0165 6.24936 13.4567 6.55475C15.1036 8.10027 16.4402 9.96102 17.3913 12.0324C17.7619 12.7983 17.9089 13.6578 17.8146 14.5074C17.7015 16.6729 16.0075 18.3985 13.8955 18.5H6.43676C4.32412 18.4016 2.6277 16.6777 2.51214 14.5119C2.41785 13.6623 2.56488 12.8028 2.93553 12.0369C3.88772 9.9635 5.22618 8.10106 6.87551 6.55475C7.3158 6.24936 7.84075 6.09857 8.37161 6.125L8.28386 5.92137L7.73546 4.63887C7.24515 3.497 6.57386 1.625 7.79139 1.625Z" stroke="black" stroke-width="2.25" stroke-linecap="round" stroke-linejoin="round"/>
<path d="M11.9606 6.96879C12.4265 6.96879 12.8043 6.59102 12.8043 6.12504C12.8043 5.65905 12.4265 5.28129 11.9606 5.28129V6.96879ZM8.37159 5.28129C7.90562 5.28129 7.52786 5.65905 7.52786 6.12504C7.52786 6.59102 7.90562 6.96879 8.37159 6.96879V5.28129ZM14.9748 5.73115C15.3785 5.49855 15.5174 4.98265 15.2847 4.57887C15.0521 4.17508 14.5362 4.03632 14.1325 4.26892L14.9748 5.73115ZM12.0363 5.94841L12.1991 6.77631L12.2015 6.77583L12.0363 5.94841ZM8.28384 5.92141L8.45855 5.0959L8.4509 5.09434L8.28384 5.92141ZM6.18672 4.26155C5.77887 4.03616 5.26552 4.18406 5.04012 4.59191C4.81472 4.99977 4.96262 5.51311 5.37048 5.73852L6.18672 4.26155ZM11.9606 5.28129H8.37159V6.96879H11.9606V5.28129ZM14.1325 4.26892C13.4271 4.67523 12.6637 4.96272 11.871 5.121L12.2015 6.77583C13.175 6.58143 14.1113 6.22857 14.9748 5.73115L14.1325 4.26892ZM11.8735 5.12051C10.7447 5.3425 9.58434 5.3341 8.45855 5.0959L8.10919 6.74688C9.45732 7.03213 10.8471 7.04215 12.1991 6.77631L11.8735 5.12051ZM8.4509 5.09434C7.66033 4.93474 6.8971 4.65415 6.18672 4.26155L5.37048 5.73852C6.23089 6.21402 7.15668 6.5546 8.11687 6.74848L8.4509 5.09434Z" fill="black"/>
</svg>
